<svg viewBox="0 0 576 512" xmlns="http://www.w3.org/2000/svg"><path d="M554.1 83.5 318.4 4.875c-19.75-6.5-41-6.5-60.75 0L21.88 83.5C8.875 87.87 0 100.1 0 113.9v49l265-79.5c15-4.5 31-4.5 46 0l265 79.5v-49c0-13.8-8.7-26.03-21.9-30.4zM274.3 114 0 196.3v228.4c0 15 10.38 28 25 31.25l242.1 53.88c13.75 3 28 3 41.75 0l242.1-53.88C565.6 452.6 576 439.6 576 424.6V196.3l-274.3-82.25c-8.9-2.85-18.4-2.85-27.4-.05zM128 230.1c0 3.625-2.375 6.75-5.875 7.75l-80 21.75C37 261 32 257.3 32 251.9v-16.5c0-3.625 2.375-6.75 5.875-7.75l80-21.88C123 204.4 128 208.3 128 213.5v16.6zm144-39.2c0 3.625-2.375 6.75-5.875 7.625l-96 26.25C165 226.1 160 222.3 160 217v-16.6c0-3.5 2.375-6.75 5.875-7.625l96-26.25C267 165.1 272 169 272 174.3v16.6zm176 22.6c0-5.25 5-9.125 10.12-7.75l80 21.88c3.48.97 5.88 4.17 5.88 7.77v16.5c0 5.375-5 9.125-10.12 7.75l-80-21.75c-3.48-1-5.88-4.1-5.88-7.8v-16.6zm-144-39.2c0-5.25 5-9.125 10.12-7.75l96 26.25c3.48.8 5.88 4.1 5.88 7.7V217c0 5.25-5 9.125-10.12 7.75l-96-26.25c-3.48-.9-5.88-4-5.88-7.6v-16.6z" fill="#fffefe" class="fill-000000"></path></svg>