<svg viewBox="0 0 512 512" xml:space="preserve" xmlns="http://www.w3.org/2000/svg"><path d="M280.479 112.267v31.414a133.695 133.695 0 0 0 21.313-3.429c-6.929-12.036-15.124-21.62-21.313-27.985zM322.77 222.608c6.733 2.49 13.676 5.564 20.788 9.237a82.132 82.132 0 0 0 12.576-37.467h-27.287c-.618 9.52-2.649 18.937-6.077 28.23zM266.983 260.986v-34.472a119.575 119.575 0 0 0-23.02 2.922c5.509 10.665 13.228 21.192 23.02 31.55zM211.749 242.261c11.253 12.753 26.363 22.02 43.499 25.948-10.451-11.398-18.632-23.057-24.452-34.938-8.717 3.111-15.184 6.618-19.047 8.99zM320.998 148.579c3.998 9.776 6.891 20.609 7.764 32.304h27.372c-1.233-15.183-6.587-29.213-14.933-40.979-6.913 3.456-13.656 6.335-20.203 8.675zM101.362 43.021h34.11V468.98h-34.11zM332.221 129.252c-10.201-10.221-23.059-17.786-37.436-21.574 6.52 7.241 14.05 16.925 20.391 28.621 5.523-1.915 11.217-4.269 17.045-7.047zM220.13 194.378h-28.801c1.099 13.526 5.476 26.132 12.316 37.042 4.305-2.715 11.766-6.892 21.938-10.595-3.042-8.715-4.865-17.535-5.453-26.447zM254.614 107.205c-15.475 3.678-29.272 11.708-40.027 22.73 4.293 2.413 10.468 5.426 18.314 8.055 6.655-12.712 14.791-23.154 21.713-30.785zM227.278 150.315c-9.417-3.279-16.666-7.032-21.414-9.844-8.118 11.648-13.323 25.471-14.536 40.411h28.867c.823-11.008 3.444-21.247 7.083-30.567zM238.526 216.87c8.353-2.086 17.896-3.579 28.457-3.875v-18.617h-33.309c.589 7.544 2.204 15.046 4.852 22.492zM233.727 180.883h33.257v-23.331a132.836 132.836 0 0 1-26.611-3.445c-3.348 8.213-5.806 17.192-6.646 26.776zM266.983 144.014v-30.188c-6.223 6.587-14.057 16.078-20.602 27.795a119.956 119.956 0 0 0 20.602 2.393zM294.148 267.736c16.119-4.109 30.354-12.96 41.131-24.981-6.145-3.073-12.135-5.644-17.951-7.755-5.67 11.12-13.433 22.041-23.18 32.736zM315.299 194.378h-34.82v18.906c9.206.648 19.036 2.245 29.425 5.146 2.986-7.958 4.778-15.981 5.395-24.052z" fill="#fffefe" class="fill-000000"></path><path d="M410.638 427.959V84.041c0-22.655-18.366-41.02-41.021-41.02H147.04V468.98h222.578c22.653-.001 41.02-18.366 41.02-41.021zm-111.87-7.984H192.179v-13.551h106.588v13.551zm56.515 0h-32.947v-13.551h32.947v13.551zm0-38.431H192.179v-13.551h163.104v13.551zm-138.99-38.432v-13.55H331.17v13.55H216.293zm57.437-59.286c-53.042 0-96.196-43.154-96.196-96.196 0-53.043 43.154-96.197 96.196-96.197 53.043 0 96.197 43.154 96.197 96.197.001 53.042-43.154 96.196-96.197 96.196z" fill="#fffefe" class="fill-000000"></path><path d="M307.986 152.616c-9.68 2.572-18.869 4.023-27.508 4.636v23.631h34.762c-.887-10.166-3.592-19.656-7.254-28.267zM280.479 226.855v35.706c10.051-10.395 17.984-20.964 23.718-31.67-8.343-2.189-16.259-3.452-23.718-4.036z" fill="#fffefe" class="fill-000000"></path></svg>